<?xml version="1.0" encoding="UTF-8"?>
<svg version="1.1" xmlns="http://www.w3.org/2000/svg" width="32" height="32">
<path d="M0 0 C10.56 0 21.12 0 32 0 C32 10.56 32 21.12 32 32 C21.44 32 10.88 32 0 32 C0 21.44 0 10.88 0 0 Z " fill="#2C2F2E" transform="translate(0,0)"/>
<path d="M0 0 C1.32 0 2.64 0 4 0 C4 1.32 4 2.64 4 4 C2.68 4 1.36 4 0 4 C0 5.32 0 6.64 0 8 C-2.64 8 -5.28 8 -8 8 C-8 6.68 -8 5.36 -8 4 C-4.535 3.505 -4.535 3.505 -1 3 C-0.67 2.01 -0.34 1.02 0 0 Z " fill="#73E807" transform="translate(24,12)"/>
<path d="M0 0 C2.64 0 5.28 0 8 0 C8 1.32 8 2.64 8 4 C5.69 4.33 3.38 4.66 1 5 C0.67 5.99 0.34 6.98 0 8 C-1.32 8 -2.64 8 -4 8 C-4 6.68 -4 5.36 -4 4 C-2.68 4 -1.36 4 0 4 C0 2.68 0 1.36 0 0 Z " fill="#73E807" transform="translate(8,12)"/>
</svg>
